<?xml version="1.0" encoding="UTF-8" standalone="no"?>
<!-- Created with Inkscape (http://www.inkscape.org/) -->

<svg
   width="132.29166mm"
   height="132.29167mm"
   viewBox="0 0 132.29166 132.29167"
   version="1.1"
   id="svg1"
   xml:space="preserve"
   xmlns="http://www.w3.org/2000/svg"
   xmlns:svg="http://www.w3.org/2000/svg"><defs
     id="defs1" /><g
     id="layer1"><rect
       style="fill:#bfbfbf;fill-opacity:1;fill-rule:evenodd;stroke:none;stroke-width:0.1;stroke-dasharray:none"
       id="rect1"
       width="132.29167"
       height="132.29167"
       x="0.0010714711"
       y="0.0003226538" /><path
       style="fill:none;fill-opacity:0.35;fill-rule:evenodd;stroke:#000000;stroke-width:1;stroke-dasharray:4, 4;stroke-dashoffset:0;stroke-opacity:1"
       d="m 130.6917,62.313652 c -1.40098,-1.666608 -2.80195,-2.585109 -4.20293,-5.953497 -1.60037,-2.669347 -4.04632,-3.816647 -4.47377,-8.597236 -0.36804,-1.268043 -1.00388,-2.402182 -2.4204,-3.145986 -0.89187,-0.951727 -2.10725,-1.687787 -3.78936,-2.112692 -3.94364,-0.93653 -7.16018,-0.642479 -10.86639,0.297409 L 92.533278,43.860673 81.342687,42.830556 C 78.71771,42.673554 76.163658,41.878217 73.80098,39.360522 72.642465,37.000173 71.059814,34.601266 67.035891,31.980425 63.752625,31.030008 62.039348,29.406738 60.578303,27.675369 58.220772,25.086754 55.863242,23.854126 53.505711,23.37031 50.64285,22.037792 49.316324,20.705275 48.278142,19.372757 c -2.442323,-0.842814 -4.84124,-1.490304 -6.765092,0 -1.470327,1.291175 -3.021638,2.558054 -7.072592,3.075041 -1.353098,0.737889 -1.844301,1.640251 -3.075041,3.690049 -3.524521,6.159628 -0.785985,6.200189 -1.230016,9.225123 l 5.842577,4.920064 v 7.072596 c -0.0043,3.578999 -0.759126,5.656841 -1.53752,7.687601 -1.279038,2.078997 -2.323084,4.510481 -3.075041,7.380099 -2.562534,4.481187 -5.125068,6.395004 -7.687602,8.302609 -2.593063,3.667896 -0.806164,6.644219 1.53752,9.532628 3.587548,3.171346 7.175095,1.844422 10.762643,2.152528 2.279693,0.03577 7.698003,10.486842 10.762644,10.762642 2.854167,-0.47955 4.926039,-1.077189 7.380097,-1.537521 5.407206,0.897146 9.369074,0.348954 13.222676,-0.307504 5.431656,1.917541 5.947473,4.702582 7.072593,7.3801 2.873614,6.929568 6.864446,1.197341 10.45514,0 4.419716,-4.833179 8.401884,-7.259841 12.300164,-9.225124 9.000458,0.412957 10.442658,4.605038 14.068498,7.705302 0.85432,5.02515 2.64175,6.0068 4.24606,7.78199 4.11121,5.31347 2.70234,8.71614 0.0236,11.67925 -4.31686,1.08807 -8.63371,2.40128 -12.95057,0.94022 -4.795943,-1.04855 -9.106601,-1.19586 -12.066945,1.16455 -2.45833,3.33511 -5.579314,5.78668 -9.61836,7.01417 -7.591753,1.23002 -11.972852,2.46003 -15.375204,3.69005 -4.800495,1.1276 -14.64347,2.6561 -19.186756,2.24045"
       id="path2" /><g
       id="g7"
       transform="translate(-76.870536,-6.6549525)"
       style="display:inline"><path
         style="fill:#6a3418;fill-opacity:1;fill-rule:evenodd;stroke:#000000;stroke-width:0.1;stroke-dasharray:none;stroke-opacity:1"
         d="m 180.09691,20.471395 -4.33283,4.160891 2.4759,-3.954566 0.34388,-1.891313 -0.96285,0.722138 -1.75376,2.579064 -1.61622,2.372738 -0.41265,0.103163 1.10041,-1.856926 0.99723,-2.063251 0.41265,-1.513051 0.0688,-1.788152 -0.8253,0.962851 -0.72213,2.063252 -0.79092,1.616213 -0.85969,1.409889 -0.79091,1.272338 0.68775,-2.269576 0.41265,-1.547439 0.24071,-1.100401 -0.37826,-1.134788 -0.34387,0.928463 -0.68775,1.753764 -0.79092,2.854164 -0.68775,1.547438 -0.48142,0.825301 0.68775,-1.925701 -0.0344,-0.687751 -0.30949,-1.719376 -0.17194,0.447038 -0.48142,1.856926 -0.61898,2.579064 -0.79091,2.166415 -0.61643,1.483057 -0.26305,-0.200937 -0.49602,1.125005 -0.68775,1.616214 -0.20633,1.409889 -0.44704,1.272338 -0.0344,1.306726 0.10317,2.751001 -0.13755,2.166414 -0.10317,1.684988 -0.37826,0.997239 -0.5502,1.066013 -0.75652,0.515812 -1.34112,0.343876 -0.48142,0.171938 -0.68775,0.618975 -0.2751,0.309487 0.0344,0.618976 0.41265,-0.206325 0.37826,0.03439 0.8253,0.41265 0.65336,0.481426 0.13755,0.137549 -0.17193,0.5502 -0.24072,0.412651 -1.54743,1.994476 -1.71938,2.132026 -1.6506,1.891315 -1.30673,1.925701 -1.03162,2.441511 0.34387,-0.171937 -1.13479,2.303966 -0.75652,1.513054 -0.51581,0.722137 -1.06602,1.066011 0.8253,-0.309487 0.65337,-0.447037 0.41265,-0.618975 0.34387,-0.722142 -0.41265,1.547442 -0.34387,0.859686 -0.58459,0.894075 -0.5502,0.790917 0.79091,-0.171938 0.5502,-0.412654 0.41265,-0.618975 0.41265,-0.756524 0.13755,-0.447037 0.13755,0.03438 -0.20632,1.341111 -0.17194,0.75653 -0.2751,0.825299 -0.0688,0.584587 v 0.515812 l 0.17194,0.309488 0.65336,-0.618975 0.44704,-0.928462 0.24071,-0.756524 0.13755,-0.653367 0.24071,-1.031624 0.10317,0.206325 -0.0344,1.134786 -0.10316,0.859692 -0.0344,1.237949 v 0.515812 l 0.27511,0.240712 0.44703,-0.412649 0.37827,-0.41265 0.20632,-0.515812 0.17194,-0.481425 0.17194,-1.719378 0.2751,1.719378 0.30948,1.581824 0.30949,0.378262 0.41265,-0.412649 0.44704,-0.997237 -0.13755,-1.547441 0.34388,-1.1004 0.0688,-1.616211 0.58458,-0.481424 0.44704,0.206324 0.30949,0.240713 0.41265,-0.06878 0.44704,-0.343875 0.44703,-0.962854 0.44704,0.06878 0.34388,-0.206325 0.30948,-0.584587 0.20633,-0.584587 v -0.68775 l 0.65336,-0.309487 0.37827,-0.34388 0.13755,-0.171937 0.37826,-0.2751 0.51581,-0.962848 0.30949,0.03439 0.68775,-0.859687 0.0344,-0.171938 -0.0688,-0.378262 0.51581,-0.343876 0.37827,-0.275101 0.0344,-0.275099 -0.0344,-0.309488 -0.13755,-0.171938 0.44703,-0.240712 0.37827,-0.206326 0.2751,-0.343874 0.0688,-0.240713 -0.0344,-0.240713 0.30949,-0.137549 0.20632,-0.343876 0.10316,-0.309487 -0.17194,-0.275101 0.37827,-0.447037 0.20632,-0.343877 0.44704,-0.240712 0.37826,-0.481425 -0.10316,-0.378263 0.58459,-0.5502 -0.20633,-0.515813 0.58459,-0.687751 0.0688,-0.2751 h 0.2751 l 2.33835,1.169177 1.54744,0.928463 1.78815,1.169175 1.89131,1.169175 0.0688,-0.171937 0.30949,-0.206325 0.13755,-0.309487 -0.17194,-0.343876 0.41265,-0.240713 0.10316,-0.447037 -0.0344,-0.653363 0.30949,-0.309488 0.10316,-0.240712 v -0.653363 -0.206326 l 0.20633,-0.103163 0.0688,-0.515812 -0.0688,-0.412651 0.10316,-0.378261 -0.13755,-0.447039 -0.10316,-0.41265 0.2751,-0.653363 0.5502,-0.447038 -0.17194,-0.378262 0.48143,-0.481426 -0.0688,-0.240712 0.34387,-0.687751 -0.10316,-0.515812 0.34388,-1.031626 -0.30949,-0.343875 0.41265,-0.997238 v -0.240717 l -1.96009,0.584588 -2.06325,0.825301 -1.78815,0.5502 -1.68499,0.412649 -1.23795,0.343877 -0.10316,-0.481426 -0.34388,-0.378263 0.8253,-0.03439 0.0688,-0.653363 -0.10316,-0.894074 0.51581,0.06877 -0.10316,-0.584587 0.2751,-0.481426 0.0344,-1.169175 -0.10317,-1.237951 0.68775,-0.240712 v -0.653363 l 0.30949,-0.653363 -0.2751,-0.653363 0.30949,-0.618975 -0.2751,-0.825301 0.24071,-0.481426 -0.0344,-0.894076 -0.10316,-0.2751 0.13755,-0.928462 v -0.859688 l -0.13755,-0.618975 0.44704,-0.722139 0.10316,-0.825301 -0.20632,-0.2751 0.0344,-0.618975 0.20632,-0.378263 v -0.447037 l -0.41265,-0.343875 -0.68775,0.171937 -0.30949,0.103163 -0.0344,-0.756526 0.75653,-1.237951 0.99724,-1.134787 1.23795,-1.616215 0.99723,-1.203563 0.44704,-0.618975 0.37826,-1.031626 z"
         id="path1-9" /><path
         style="fill:#d2d2d2;fill-opacity:1;fill-rule:evenodd;stroke:none;stroke-width:0.1;stroke-dasharray:none;stroke-dashoffset:0;stroke-opacity:1"
         d="m 170.29893,26.333508 -1.60407,3.742833 1.33672,-0.534691 1.65244,-0.389129 1.74593,0.334502 1.5945,0.725146 0.0503,-1.86429 -0.0853,-0.682054 1.6096,-2.496537 -0.23007,-0.506147 -0.59817,0.13804 -1.61047,2.34668 0.48132,-1.460714 0.15427,-1.118509 -0.34712,-0.07714 -0.65568,0.732817 -0.69425,1.851327 -0.32779,0.85969 0.33868,-2.956086 -0.0995,-0.453138 -0.38431,0.104813 -0.94331,3.17931 0.26272,-3.003339 -0.0334,-0.233712 -0.2671,-0.06678 -0.20032,0.2671 -0.76791,2.737773 -0.10016,-0.66775 z"
         id="path4" /><path
         style="fill:#d2d2d2;fill-opacity:1;fill-rule:evenodd;stroke:none;stroke-width:0.2;stroke-dasharray:4.79999, 4.79999;stroke-dashoffset:0;stroke-opacity:1"
         d="m 161.39023,48.427314 0.35666,-0.183107 0.47164,0.04759 0.80353,0.418026 0.78739,0.623356 0.92602,-0.04318 0.87665,-0.244936 0.75233,-0.810907 -0.0865,-1.018426 -0.46485,-0.711898 -0.9376,-0.533575 -0.74306,0.531513 -1.79773,0.455473 -0.7141,0.637529 -0.24888,0.281197 z"
         id="path4-1" /><path
         style="fill:#d2d2d2;fill-opacity:1;fill-rule:evenodd;stroke:none;stroke-width:0.1;stroke-dasharray:none;stroke-dashoffset:0;stroke-opacity:1"
         d="m 175.9188,46.081068 5.36302,2.587224 0.28694,-0.682589 0.53476,-0.409938 -0.17758,-0.393027 0.49447,-0.456091 -0.0769,-0.256776 0.35063,-0.691419 -0.10255,-0.509806 0.34112,-1.015488 -0.31703,-0.347681 0.42171,-1.019562 0.005,-0.166028 -1.97068,0.586282 -1.99362,0.797459 -1.77014,0.5469 -1.67529,0.419624 -1.26956,0.347251 z"
         id="path4-1-8" /><path
         style="fill:#d2d2d2;fill-opacity:1;fill-rule:evenodd;stroke:none;stroke-width:0.1;stroke-dasharray:none;stroke-dashoffset:0;stroke-opacity:1"
         d="m 178.29606,53.603472 1.71094,1.046329 0.0447,-0.13485 0.3133,-0.203195 0.12422,-0.272175 -0.18154,-0.374388 0.43886,-0.245843 0.0945,-0.414533 -0.0405,-0.675818 0.32119,-0.31913 0.0972,-0.22396 -0.004,-0.879776 0.21125,-0.10468 0.0642,-0.48383 -0.0661,-0.41276 0.1,-0.374598 -0.196,-0.691717 -0.0435,-0.174685 -1.26103,0.291447 -2.93219,0.568541 -2.86213,0.448111 -1.74111,0.267012 2.34176,1.17258 1.58503,0.957044 z"
         id="path4-1-8-5" /><path
         style="fill:#d2d2d2;fill-opacity:1;fill-rule:evenodd;stroke:none;stroke-width:0.1;stroke-dasharray:none;stroke-dashoffset:0;stroke-opacity:1"
         d="m 155.22116,63.687931 1.15219,-2.646377 0.62583,0.920272 0.93168,0.517563 1.63941,0.0085 1.11033,-0.350388 0.065,2.028206 -0.43128,0.500018 -0.96555,2.044868 -0.3586,0.269603 -0.36536,-0.290454 0.0851,-2.004142 -0.51704,1.035311 -0.55648,0.718059 -0.46379,-0.01618 0.0374,-0.565408 0.66094,-1.498793 0.44603,-0.929198 -1.95318,2.266556 -0.34687,0.175455 -0.15623,-0.343658 1.39016,-2.098982 -1.48971,1.599969 -0.43087,0.323778 -0.28945,-0.05344 0.14814,-0.346435 1.12854,-1.696979 -0.47631,0.361679 z"
         id="path4-3" /><path
         style="fill:#d0a600;fill-opacity:1;fill-rule:evenodd;stroke:none;stroke-width:0.2;stroke-dasharray:4.79999, 4.79999;stroke-dashoffset:0;stroke-opacity:1"
         d="m 161.38882,48.433185 -0.0229,-0.582872 0.11189,-0.103902 0.14386,0.03996 0.19182,0.08792 0.016,0.159848 -0.04,0.09591 -0.0372,0.113916 z"
         id="path5" /><path
         style="fill:#cc6f00;fill-opacity:1;fill-rule:evenodd;stroke:none;stroke-width:0.1;stroke-dasharray:none;stroke-dashoffset:0;stroke-opacity:1"
         d="m 164.86778,45.970832 0.93661,0.53162 0.46052,0.703069 0.0858,1.036952 -0.73737,0.791318 -0.84514,0.241682 -0.9513,0.06036 0.92277,0.542288 2.83703,0.306705 1.87857,-0.03834 2.37698,0.07668 0.30813,0.004 0.34352,0.0137 4.58163,-0.70022 2.87582,-0.561684 1.33582,-0.311819 -2.81867,-1.373236 -2.2225,-1.109958 -1.90464,-0.783416 -1.88956,-0.571926 h -1.85998 l -1.79692,0.189151 -1.7654,0.252198 -1.19795,0.283726 z"
         id="path6" /><path
         style="fill:#000000;fill-opacity:1;fill-rule:evenodd;stroke:none;stroke-width:0.2;stroke-dasharray:4.79999, 4.79999;stroke-dashoffset:0;stroke-opacity:1"
         d="m 162.4609,47.308296 -0.29129,0.198607 0.23832,0.07944 0.30454,-0.172127 z"
         id="path7" /></g><g
       id="g10"
       transform="translate(-129.86915,-53.64718)"
       style="display:inline"><ellipse
         style="fill:#79330d;fill-opacity:1;fill-rule:evenodd;stroke:#000000;stroke-width:0.1;stroke-dasharray:none;stroke-dashoffset:0;stroke-opacity:1"
         id="path8"
         cx="164.05421"
         cy="92.201706"
         rx="9.1841545"
         ry="5.0422807" /><ellipse
         style="fill:#e5e5e5;fill-opacity:1;fill-rule:evenodd;stroke:#000000;stroke-width:0.163361;stroke-dasharray:none;stroke-dashoffset:0;stroke-opacity:1"
         id="path9"
         cx="119.50081"
         cy="138.24925"
         rx="3.1598825"
         ry="4.8494778"
         transform="matrix(0.94052486,-0.33972486,0.34866456,0.93724758,0,0)" /><ellipse
         style="fill:#e5e5e5;fill-opacity:1;fill-rule:evenodd;stroke:#000000;stroke-width:0.163947;stroke-dasharray:none;stroke-dashoffset:0;stroke-opacity:1"
         id="path9-1"
         cx="186.6566"
         cy="34.649963"
         rx="3.1742659"
         ry="4.8622389"
         transform="matrix(0.95421197,0.29913128,-0.30315244,0.95294207,0,0)" /><path
         style="fill:#79330d;fill-opacity:1;fill-rule:evenodd;stroke:none;stroke-width:0.106514;stroke-dasharray:none;stroke-dashoffset:0;stroke-opacity:1"
         d="m 156.9582,90.730841 c 4.16795,2.267953 8.70248,2.812684 14.00452,-0.250638 l 1.35068,1.879783 -2.4881,2.318398 -8.31741,0.313299 -5.04732,-2.193081 z"
         id="path10" /></g><g
       id="g14-0"
       transform="matrix(0.47594361,0,0,0.47594361,-38.745755,32.8339)"
       style="display:inline;stroke-width:1.05054;stroke-dasharray:none"><path
         style="fill:#e5e5e5;fill-opacity:1;fill-rule:evenodd;stroke:#000000;stroke-width:1.05054;stroke-linecap:round;stroke-linejoin:round;stroke-dasharray:none;stroke-dashoffset:0;stroke-opacity:1"
         d="m 145.25847,83.233442 -0.12688,49.227568 c 0.0954,1.08923 0.63023,1.73909 1.56387,1.99011 l 39.12943,0.0349 c 1.13788,-0.25635 1.86894,-0.91951 1.89104,-2.29163 l 0.0128,-48.716486 c -0.0937,-1.131624 -0.52927,-1.838954 -1.86894,-2.082065 l -38.96407,0.108341 c -0.70428,0.227674 -1.38934,0.497609 -1.63728,1.729232 z"
         id="path12-5" /><path
         style="fill:none;fill-opacity:1;fill-rule:evenodd;stroke:#999999;stroke-width:1.05054;stroke-linecap:square;stroke-linejoin:miter;stroke-dasharray:none;stroke-dashoffset:0;stroke-opacity:1"
         d="m 151.07923,92.093285 30.87752,0.01203"
         id="path13-2" /><path
         style="fill:none;fill-opacity:1;fill-rule:evenodd;stroke:#999999;stroke-width:1.05054;stroke-linecap:square;stroke-linejoin:miter;stroke-dasharray:none;stroke-dashoffset:0;stroke-opacity:1"
         d="m 151.07369,102.70927 30.88944,0.012"
         id="path13-3-2" /><path
         style="fill:none;fill-opacity:1;fill-rule:evenodd;stroke:#999999;stroke-width:1.05054;stroke-linecap:square;stroke-linejoin:miter;stroke-dasharray:none;stroke-dashoffset:0;stroke-opacity:1"
         d="m 151.06706,113.28564 30.8954,0.012"
         id="path13-3-7-7" /><path
         style="fill:none;fill-opacity:1;fill-rule:evenodd;stroke:#6190d1;stroke-width:1.05054;stroke-linecap:square;stroke-linejoin:miter;stroke-dasharray:none;stroke-dashoffset:0;stroke-opacity:1"
         d="m 151.15274,123.95609 4.69632,4.72926 5.31357,-10.58722 5.28599,5.30741 5.26375,-10.57651 5.14557,5.14557"
         id="path14-3" /><text
         xml:space="preserve"
         style="font-style:normal;font-variant:normal;font-weight:600;font-stretch:condensed;font-size:4.16665px;font-family:'Avenir Next Condensed';-inkscape-font-specification:'Avenir Next Condensed,  Semi-Bold Condensed';text-align:start;writing-mode:lr-tb;direction:ltr;text-anchor:start;display:inline;fill:#000000;fill-opacity:1;fill-rule:evenodd;stroke:none;stroke-width:0.590549;stroke-linecap:round;stroke-linejoin:round;stroke-dasharray:none;stroke-opacity:1"
         x="39.836754"
         y="77.405342"
         id="text15-9"
         transform="matrix(2.1347153,0,0,2.067993,81.408289,-68.986954)"><tspan
           id="tspan15-5"
           style="font-style:normal;font-variant:normal;font-weight:600;font-stretch:condensed;font-size:4.16665px;font-family:'Avenir Next Condensed';-inkscape-font-specification:'Avenir Next Condensed,  Semi-Bold Condensed';text-align:center;text-anchor:middle;fill:#000000;fill-opacity:1;stroke:none;stroke-width:0.590548"
           x="39.836754"
           y="77.405342">Master</tspan><tspan
           style="font-style:normal;font-variant:normal;font-weight:600;font-stretch:condensed;font-size:4.16665px;font-family:'Avenir Next Condensed';-inkscape-font-specification:'Avenir Next Condensed,  Semi-Bold Condensed';text-align:center;text-anchor:middle;fill:#000000;fill-opacity:1;stroke:none;stroke-width:0.590548"
           x="39.836754"
           y="82.613655"
           id="tspan16-4">Thesis</tspan></text><g
         id="g15"
         transform="matrix(2.1010893,0,0,2.1010893,82.279039,-70.016022)"
         style="display:inline;stroke-width:1.05054;stroke-dasharray:none"><path
           style="fill:#e5e5e5;fill-opacity:1;fill-rule:evenodd;stroke:#000000;stroke-width:0.5;stroke-linecap:round;stroke-linejoin:round;stroke-dasharray:none;stroke-opacity:1"
           d="m 43.352558,70.462835 c 1.983124,3.37388 4.792154,5.626888 8.479425,6.687997 l 3.941141,-4.896569 c -3.520803,-1.115528 -6.443881,-3.104655 -8.384408,-6.529818 z"
           id="path1" /><rect
           style="fill:#e5e5e5;fill-opacity:1;fill-rule:evenodd;stroke:#000000;stroke-width:0.931591;stroke-linecap:round;stroke-linejoin:round;stroke-dasharray:none;stroke-opacity:1"
           id="rect2"
           width="10.075403"
           height="9.854372"
           x="77.761444"
           y="-9.1051273"
           transform="matrix(0.56906498,0.82229256,-0.9339553,-0.35738983,0,0)" /><path
           style="fill:none;fill-opacity:1;fill-rule:evenodd;stroke:#000000;stroke-width:0.7;stroke-linecap:round;stroke-linejoin:round;stroke-dasharray:none;stroke-opacity:1"
           d="m 50.942504,69.447565 3.572407,1.000273 c 1.982456,0.695936 2.417073,1.437657 2.438484,3.201509 l -0.03194,5.489315 -1.28144,1.409209 2.795509,0.01975 -1.514069,-1.428962"
           id="path3" /><path
           style="fill:#e5e5e5;fill-opacity:1;fill-rule:evenodd;stroke:none;stroke-width:0.96476;stroke-linecap:round;stroke-linejoin:round;stroke-dasharray:none;stroke-opacity:1"
           d="m 56.191457,72.622887 1.59784,2.310679 -2.214155,-0.846843 z"
           id="path15" /></g></g><path
       style="display:none;fill:#e5e5e5;fill-opacity:1;fill-rule:evenodd;stroke:#000000;stroke-width:0.6;stroke-dasharray:none;stroke-dashoffset:0;stroke-opacity:1"
       d="m 39.163388,71.967297 c -1.287563,-0.829634 -2.566274,-1.786887 -4.878972,-1.876425 -0.608692,1.319091 -0.566492,3.427494 -0.164868,4.679181 -1.220572,1.345167 -1.707741,2.71929 -1.799575,4.346639 -0.260915,1.880847 -0.08164,5.01738 3.026305,7.698493 1.692871,1.03682 3.279293,1.328489 4.831468,1.380419 -0.329411,0.657651 -0.729565,1.103079 -0.84949,2.389191 -1.181339,0.244859 -1.738097,1.168614 -4.512911,-0.318561 -1.053263,-1.700193 -2.102366,-3.409539 -4.247442,-2.707746 0.01166,0.350053 0.248427,0.625099 0.477839,0.902582 1.190859,0.472723 1.654229,1.672933 2.282998,2.707745 0.544665,1.602396 1.824366,1.870313 2.800248,2.107175 1.201928,0.10523 2.240398,0.0742 2.995467,-0.192977 l 0.05023,4.24745 8.782614,0.128438 0.02511,-6.396281 c -0.123885,-0.942044 -0.247767,-1.223418 -0.371653,-1.592794 -0.24469,-0.389349 -0.398428,-0.778698 -0.849487,-1.168047 1.461901,-0.02471 2.566284,-0.406925 3.663419,-0.796396 1.007053,-0.514946 1.96287,-1.081132 2.601561,-1.964443 0.560013,-0.921522 1.189382,-1.634974 1.539699,-3.185583 0.239038,-1.153795 0.396655,-2.372725 0.265464,-3.822699 -0.344882,-1.460281 -0.815092,-2.795236 -1.752069,-3.66342 0.423902,-1.564138 0.499439,-3.171823 -0.265468,-4.884561 -1.89254,0.272661 -3.35087,1.131164 -4.803491,1.917065 -2.620893,-0.522305 -5.384282,-0.815206 -8.847016,0.06555 z"
       id="path11" /><g
       id="g14"
       transform="matrix(0.47594361,0,0,0.47594361,20.77669,32.620709)"
       style="display:none"><path
         style="fill:#e5e5e5;fill-opacity:1;fill-rule:evenodd;stroke:#000000;stroke-width:1;stroke-linecap:round;stroke-linejoin:round;stroke-dasharray:none;stroke-dashoffset:0;stroke-opacity:1"
         d="m 145.25847,83.233442 -0.12688,49.227568 c 0.0954,1.08923 0.63023,1.73909 1.56387,1.99011 l 39.12943,0.0349 c 1.13788,-0.25635 1.86894,-0.91951 1.89104,-2.29163 l 0.0128,-48.716486 c -0.0937,-1.131624 -0.52927,-1.838954 -1.86894,-2.082065 l -38.96407,0.108341 c -0.70428,0.227674 -1.38934,0.497609 -1.63728,1.729232 z"
         id="path12" /><path
         style="fill:none;fill-opacity:1;fill-rule:evenodd;stroke:#999999;stroke-width:0.999971;stroke-linecap:square;stroke-linejoin:miter;stroke-dasharray:none;stroke-dashoffset:0;stroke-opacity:1"
         d="m 151.07923,92.093285 30.87752,0.01203"
         id="path13" /><path
         style="fill:none;fill-opacity:1;fill-rule:evenodd;stroke:#999999;stroke-width:0.999975;stroke-linecap:square;stroke-linejoin:miter;stroke-dasharray:none;stroke-dashoffset:0;stroke-opacity:1"
         d="m 151.07369,102.70927 30.88944,0.012"
         id="path13-3" /><path
         style="fill:none;fill-opacity:1;fill-rule:evenodd;stroke:#999999;stroke-width:0.999981;stroke-linecap:square;stroke-linejoin:miter;stroke-dasharray:none;stroke-dashoffset:0;stroke-opacity:1"
         d="m 151.06706,113.28564 30.8954,0.012"
         id="path13-3-7" /><path
         style="fill:none;fill-opacity:1;fill-rule:evenodd;stroke:#6190d1;stroke-width:1;stroke-linecap:square;stroke-linejoin:miter;stroke-dasharray:none;stroke-dashoffset:0;stroke-opacity:1"
         d="m 151.15274,123.95609 4.69632,4.72926 5.31357,-10.58722 5.28599,5.30741 5.26375,-10.57651 5.14557,5.14557"
         id="path14" /><text
         xml:space="preserve"
         style="font-style:normal;font-variant:normal;font-weight:600;font-stretch:condensed;font-size:4.16665px;font-family:'Avenir Next Condensed';-inkscape-font-specification:'Avenir Next Condensed,  Semi-Bold Condensed';text-align:start;writing-mode:lr-tb;direction:ltr;text-anchor:start;fill:#000000;fill-opacity:1;fill-rule:evenodd;stroke:none;stroke-width:0.590549;stroke-linecap:round;stroke-linejoin:round;stroke-dasharray:none;stroke-opacity:1"
         x="98.384186"
         y="77.102814"
         id="text15"
         transform="matrix(2.1347153,0,0,2.067993,-43.65368,-68.539021)"><tspan
           id="tspan15"
           style="font-style:normal;font-variant:normal;font-weight:600;font-stretch:condensed;font-size:4.16665px;font-family:'Avenir Next Condensed';-inkscape-font-specification:'Avenir Next Condensed,  Semi-Bold Condensed';text-align:center;text-anchor:middle;fill:#000000;fill-opacity:1;stroke:none;stroke-width:0.590548"
           x="98.384186"
           y="77.102814">Scientific</tspan><tspan
           style="font-style:normal;font-variant:normal;font-weight:600;font-stretch:condensed;font-size:4.16665px;font-family:'Avenir Next Condensed';-inkscape-font-specification:'Avenir Next Condensed,  Semi-Bold Condensed';text-align:center;text-anchor:middle;fill:#000000;fill-opacity:1;stroke:none;stroke-width:0.590548"
           x="98.384186"
           y="82.311127"
           id="tspan16">Paper</tspan></text><g
         id="g19"
         transform="rotate(-8.7866228,347.80574,228.45561)"><circle
           style="display:inline;fill:#e5e5e5;fill-opacity:1;fill-rule:evenodd;stroke:#000000;stroke-width:1.11727;stroke-linecap:round;stroke-linejoin:round;stroke-dasharray:none;stroke-opacity:1"
           id="path16-8"
           cx="200.62314"
           cy="106.03599"
           r="11.276105" /><circle
           style="display:inline;fill:#e5e5e5;fill-opacity:1;fill-rule:evenodd;stroke:#000000;stroke-width:1.05054;stroke-linecap:round;stroke-linejoin:round;stroke-dasharray:none;stroke-opacity:1"
           id="path16"
           cx="200.73689"
           cy="106.05091"
           r="8.8355236" /><rect
           style="fill:#e5e5e5;fill-opacity:1;fill-rule:evenodd;stroke:#000000;stroke-width:1.05054;stroke-linecap:round;stroke-linejoin:round;stroke-dasharray:none;stroke-opacity:1"
           id="rect16"
           width="4.5523686"
           height="6.7409296"
           x="136.29361"
           y="191.19879"
           transform="rotate(-24.549236)" /><path
           style="fill:#e5e5e5;fill-opacity:1;fill-rule:evenodd;stroke:#000000;stroke-width:1.05054;stroke-linecap:round;stroke-linejoin:round;stroke-dasharray:none;stroke-opacity:1"
           d="m 204.60438,124.1818 7.35251,-3.36045 6.37371,13.09712 c 0.018,1.54247 -0.46449,2.45923 -1.08866,3.19894 -0.98539,0.78094 -1.90585,1.30214 -2.72963,1.43665 -1.39003,0.16583 -2.66154,0.0156 -3.56928,-1.10463 z"
           id="path17" /><path
           style="fill:#e5e5e5;fill-opacity:1;fill-rule:evenodd;stroke:#000000;stroke-width:1.05054;stroke-linecap:round;stroke-linejoin:round;stroke-dasharray:none;stroke-opacity:1"
           d="m 207.38387,125.34425 5.02759,10.59598"
           id="path18" /><path
           style="fill:#e5e5e5;fill-opacity:1;fill-rule:evenodd;stroke:#000000;stroke-width:1.05054;stroke-linecap:round;stroke-linejoin:round;stroke-dasharray:none;stroke-opacity:1"
           d="m 211.1562,123.63603 5.20598,10.65049"
           id="path19" /></g><g
         id="g7-8"
         transform="matrix(0.26014619,0,0,0.26014619,139.93589,118.15023)"><path
           style="fill:#6a3418;fill-opacity:1;fill-rule:evenodd;stroke:#000000;stroke-width:0.1;stroke-dasharray:none;stroke-opacity:1"
           d="m 180.09691,20.471395 -4.33283,4.160891 2.4759,-3.954566 0.34388,-1.891313 -0.96285,0.722138 -1.75376,2.579064 -1.61622,2.372738 -0.41265,0.103163 1.10041,-1.856926 0.99723,-2.063251 0.41265,-1.513051 0.0688,-1.788152 -0.8253,0.962851 -0.72213,2.063252 -0.79092,1.616213 -0.85969,1.409889 -0.79091,1.272338 0.68775,-2.269576 0.41265,-1.547439 0.24071,-1.100401 -0.37826,-1.134788 -0.34387,0.928463 -0.68775,1.753764 -0.79092,2.854164 -0.68775,1.547438 -0.48142,0.825301 0.68775,-1.925701 -0.0344,-0.687751 -0.30949,-1.719376 -0.17194,0.447038 -0.48142,1.856926 -0.61898,2.579064 -0.79091,2.166415 -0.61643,1.483057 -0.26305,-0.200937 -0.49602,1.125005 -0.68775,1.616214 -0.20633,1.409889 -0.44704,1.272338 -0.0344,1.306726 0.10317,2.751001 -0.13755,2.166414 -0.10317,1.684988 -0.37826,0.997239 -0.5502,1.066013 -0.75652,0.515812 -1.34112,0.343876 -0.48142,0.171938 -0.68775,0.618975 -0.2751,0.309487 0.0344,0.618976 0.41265,-0.206325 0.37826,0.03439 0.8253,0.41265 0.65336,0.481426 0.13755,0.137549 -0.17193,0.5502 -0.24072,0.412651 -1.54743,1.994476 -1.71938,2.132026 -1.6506,1.891315 -1.30673,1.925701 -1.03162,2.441511 0.34387,-0.171937 -1.13479,2.303966 -0.75652,1.513054 -0.51581,0.722137 -1.06602,1.066011 0.8253,-0.309487 0.65337,-0.447037 0.41265,-0.618975 0.34387,-0.722142 -0.41265,1.547442 -0.34387,0.859686 -0.58459,0.894075 -0.5502,0.790917 0.79091,-0.171938 0.5502,-0.412654 0.41265,-0.618975 0.41265,-0.756524 0.13755,-0.447037 0.13755,0.03438 -0.20632,1.341111 -0.17194,0.75653 -0.2751,0.825299 -0.0688,0.584587 v 0.515812 l 0.17194,0.309488 0.65336,-0.618975 0.44704,-0.928462 0.24071,-0.756524 0.13755,-0.653367 0.24071,-1.031624 0.10317,0.206325 -0.0344,1.134786 -0.10316,0.859692 -0.0344,1.237949 v 0.515812 l 0.27511,0.240712 0.44703,-0.412649 0.37827,-0.41265 0.20632,-0.515812 0.17194,-0.481425 0.17194,-1.719378 0.2751,1.719378 0.30948,1.581824 0.30949,0.378262 0.41265,-0.412649 0.44704,-0.997237 -0.13755,-1.547441 0.34388,-1.1004 0.0688,-1.616211 0.58458,-0.481424 0.44704,0.206324 0.30949,0.240713 0.41265,-0.06878 0.44704,-0.343875 0.44703,-0.962854 0.44704,0.06878 0.34388,-0.206325 0.30948,-0.584587 0.20633,-0.584587 v -0.68775 l 0.65336,-0.309487 0.37827,-0.34388 0.13755,-0.171937 0.37826,-0.2751 0.51581,-0.962848 0.30949,0.03439 0.68775,-0.859687 0.0344,-0.171938 -0.0688,-0.378262 0.51581,-0.343876 0.37827,-0.275101 0.0344,-0.275099 -0.0344,-0.309488 -0.13755,-0.171938 0.44703,-0.240712 0.37827,-0.206326 0.2751,-0.343874 0.0688,-0.240713 -0.0344,-0.240713 0.30949,-0.137549 0.20632,-0.343876 0.10316,-0.309487 -0.17194,-0.275101 0.37827,-0.447037 0.20632,-0.343877 0.44704,-0.240712 0.37826,-0.481425 -0.10316,-0.378263 0.58459,-0.5502 -0.20633,-0.515813 0.58459,-0.687751 0.0688,-0.2751 h 0.2751 l 2.33835,1.169177 1.54744,0.928463 1.78815,1.169175 1.89131,1.169175 0.0688,-0.171937 0.30949,-0.206325 0.13755,-0.309487 -0.17194,-0.343876 0.41265,-0.240713 0.10316,-0.447037 -0.0344,-0.653363 0.30949,-0.309488 0.10316,-0.240712 v -0.653363 -0.206326 l 0.20633,-0.103163 0.0688,-0.515812 -0.0688,-0.412651 0.10316,-0.378261 -0.13755,-0.447039 -0.10316,-0.41265 0.2751,-0.653363 0.5502,-0.447038 -0.17194,-0.378262 0.48143,-0.481426 -0.0688,-0.240712 0.34387,-0.687751 -0.10316,-0.515812 0.34388,-1.031626 -0.30949,-0.343875 0.41265,-0.997238 v -0.240717 l -1.96009,0.584588 -2.06325,0.825301 -1.78815,0.5502 -1.68499,0.412649 -1.23795,0.343877 -0.10316,-0.481426 -0.34388,-0.378263 0.8253,-0.03439 0.0688,-0.653363 -0.10316,-0.894074 0.51581,0.06877 -0.10316,-0.584587 0.2751,-0.481426 0.0344,-1.169175 -0.10317,-1.237951 0.68775,-0.240712 v -0.653363 l 0.30949,-0.653363 -0.2751,-0.653363 0.30949,-0.618975 -0.2751,-0.825301 0.24071,-0.481426 -0.0344,-0.894076 -0.10316,-0.2751 0.13755,-0.928462 v -0.859688 l -0.13755,-0.618975 0.44704,-0.722139 0.10316,-0.825301 -0.20632,-0.2751 0.0344,-0.618975 0.20632,-0.378263 v -0.447037 l -0.41265,-0.343875 -0.68775,0.171937 -0.30949,0.103163 -0.0344,-0.756526 0.75653,-1.237951 0.99724,-1.134787 1.23795,-1.616215 0.99723,-1.203563 0.44704,-0.618975 0.37826,-1.031626 z"
           id="path1-9-5" /><path
           style="fill:#d2d2d2;fill-opacity:1;fill-rule:evenodd;stroke:none;stroke-width:0.1;stroke-dasharray:none;stroke-dashoffset:0;stroke-opacity:1"
           d="m 170.29893,26.333508 -1.60407,3.742833 1.33672,-0.534691 1.65244,-0.389129 1.74593,0.334502 1.5945,0.725146 0.0503,-1.86429 -0.0853,-0.682054 1.6096,-2.496537 -0.23007,-0.506147 -0.59817,0.13804 -1.61047,2.34668 0.48132,-1.460714 0.15427,-1.118509 -0.34712,-0.07714 -0.65568,0.732817 -0.69425,1.851327 -0.32779,0.85969 0.33868,-2.956086 -0.0995,-0.453138 -0.38431,0.104813 -0.94331,3.17931 0.26272,-3.003339 -0.0334,-0.233712 -0.2671,-0.06678 -0.20032,0.2671 -0.76791,2.737773 -0.10016,-0.66775 z"
           id="path4-8" /><path
           style="fill:#d2d2d2;fill-opacity:1;fill-rule:evenodd;stroke:none;stroke-width:0.2;stroke-dasharray:4.79999, 4.79999;stroke-dashoffset:0;stroke-opacity:1"
           d="m 161.39023,48.427314 0.35666,-0.183107 0.47164,0.04759 0.80353,0.418026 0.78739,0.623356 0.92602,-0.04318 0.87665,-0.244936 0.75233,-0.810907 -0.0865,-1.018426 -0.46485,-0.711898 -0.9376,-0.533575 -0.74306,0.531513 -1.79773,0.455473 -0.7141,0.637529 -0.24888,0.281197 z"
           id="path4-1-3" /><path
           style="fill:#d2d2d2;fill-opacity:1;fill-rule:evenodd;stroke:none;stroke-width:0.1;stroke-dasharray:none;stroke-dashoffset:0;stroke-opacity:1"
           d="m 175.9188,46.081068 5.36302,2.587224 0.28694,-0.682589 0.53476,-0.409938 -0.17758,-0.393027 0.49447,-0.456091 -0.0769,-0.256776 0.35063,-0.691419 -0.10255,-0.509806 0.34112,-1.015488 -0.31703,-0.347681 0.42171,-1.019562 0.005,-0.166028 -1.97068,0.586282 -1.99362,0.797459 -1.77014,0.5469 -1.67529,0.419624 -1.26956,0.347251 z"
           id="path4-1-8-0" /><path
           style="fill:#d2d2d2;fill-opacity:1;fill-rule:evenodd;stroke:none;stroke-width:0.1;stroke-dasharray:none;stroke-dashoffset:0;stroke-opacity:1"
           d="m 178.29606,53.603472 1.71094,1.046329 0.0447,-0.13485 0.3133,-0.203195 0.12422,-0.272175 -0.18154,-0.374388 0.43886,-0.245843 0.0945,-0.414533 -0.0405,-0.675818 0.32119,-0.31913 0.0972,-0.22396 -0.004,-0.879776 0.21125,-0.10468 0.0642,-0.48383 -0.0661,-0.41276 0.1,-0.374598 -0.196,-0.691717 -0.0435,-0.174685 -1.26103,0.291447 -2.93219,0.568541 -2.86213,0.448111 -1.74111,0.267012 2.34176,1.17258 1.58503,0.957044 z"
           id="path4-1-8-5-6" /><path
           style="fill:#d2d2d2;fill-opacity:1;fill-rule:evenodd;stroke:none;stroke-width:0.1;stroke-dasharray:none;stroke-dashoffset:0;stroke-opacity:1"
           d="m 155.22116,63.687931 1.15219,-2.646377 0.62583,0.920272 0.93168,0.517563 1.63941,0.0085 1.11033,-0.350388 0.065,2.028206 -0.43128,0.500018 -0.96555,2.044868 -0.3586,0.269603 -0.36536,-0.290454 0.0851,-2.004142 -0.51704,1.035311 -0.55648,0.718059 -0.46379,-0.01618 0.0374,-0.565408 0.66094,-1.498793 0.44603,-0.929198 -1.95318,2.266556 -0.34687,0.175455 -0.15623,-0.343658 1.39016,-2.098982 -1.48971,1.599969 -0.43087,0.323778 -0.28945,-0.05344 0.14814,-0.346435 1.12854,-1.696979 -0.47631,0.361679 z"
           id="path4-3-2" /><path
           style="fill:#d0a600;fill-opacity:1;fill-rule:evenodd;stroke:none;stroke-width:0.2;stroke-dasharray:4.79999, 4.79999;stroke-dashoffset:0;stroke-opacity:1"
           d="m 161.38882,48.433185 -0.0229,-0.582872 0.11189,-0.103902 0.14386,0.03996 0.19182,0.08792 0.016,0.159848 -0.04,0.09591 -0.0372,0.113916 z"
           id="path5-2" /><path
           style="fill:#cc6f00;fill-opacity:1;fill-rule:evenodd;stroke:none;stroke-width:0.1;stroke-dasharray:none;stroke-dashoffset:0;stroke-opacity:1"
           d="m 164.86778,45.970832 0.93661,0.53162 0.46052,0.703069 0.0858,1.036952 -0.73737,0.791318 -0.84514,0.241682 -0.9513,0.06036 0.92277,0.542288 2.83703,0.306705 1.87857,-0.03834 2.37698,0.07668 0.30813,0.004 0.34352,0.0137 4.58163,-0.70022 2.87582,-0.561684 1.33582,-0.311819 -2.81867,-1.373236 -2.2225,-1.109958 -1.90464,-0.783416 -1.88956,-0.571926 h -1.85998 l -1.79692,0.189151 -1.7654,0.252198 -1.19795,0.283726 z"
           id="path6-5" /><path
           style="fill:#000000;fill-opacity:1;fill-rule:evenodd;stroke:none;stroke-width:0.2;stroke-dasharray:4.79999, 4.79999;stroke-dashoffset:0;stroke-opacity:1"
           d="m 162.4609,47.308296 -0.29129,0.198607 0.23832,0.07944 0.30454,-0.172127 z"
           id="path7-2" /></g></g></g></svg>
